<mxfile host="app.diagrams.net" modified="2023-10-13T11:16:27.766Z" agent="Mozilla/5.0 (Windows NT 10.0; Win64; x64) AppleWebKit/537.36 (KHTML, like Gecko) Chrome/117.0.0.0 Safari/537.36" etag="p332YaBMtjhPs_O55QAW" version="22.0.4" type="github">
  <diagram name="第 1 页" id="914V8sja4CJvC9ZfgKHP">
    <mxGraphModel dx="1419" dy="850" grid="1" gridSize="10" guides="1" tooltips="1" connect="1" arrows="1" fold="1" page="1" pageScale="1" pageWidth="827" pageHeight="1169" math="0" shadow="0">
      <root>
        <mxCell id="0" />
        <mxCell id="1" parent="0" />
        <mxCell id="tSgFQOaB9TfaK_oSHJal-1" value="" style="rounded=1;whiteSpace=wrap;html=1;dashed=1;dashPattern=8 8;" vertex="1" parent="1">
          <mxGeometry x="310" y="20" width="330" height="140" as="geometry" />
        </mxCell>
        <mxCell id="tSgFQOaB9TfaK_oSHJal-3" value="&lt;div style=&quot;font-size: 20px;&quot;&gt;&lt;font style=&quot;font-size: 20px;&quot;&gt;Data Source&lt;/font&gt;&lt;/div&gt;" style="text;html=1;strokeColor=none;fillColor=none;align=center;verticalAlign=middle;whiteSpace=wrap;rounded=0;fontStyle=1" vertex="1" parent="1">
          <mxGeometry x="395" y="20" width="160" height="50" as="geometry" />
        </mxCell>
        <mxCell id="tSgFQOaB9TfaK_oSHJal-4" value="新闻报道" style="rounded=0;whiteSpace=wrap;html=1;" vertex="1" parent="1">
          <mxGeometry x="330" y="70" width="80" height="30" as="geometry" />
        </mxCell>
        <mxCell id="tSgFQOaB9TfaK_oSHJal-6" value="政府官网" style="rounded=0;whiteSpace=wrap;html=1;" vertex="1" parent="1">
          <mxGeometry x="435" y="70" width="80" height="30" as="geometry" />
        </mxCell>
        <mxCell id="tSgFQOaB9TfaK_oSHJal-7" value="食品企业" style="rounded=0;whiteSpace=wrap;html=1;" vertex="1" parent="1">
          <mxGeometry x="330" y="120" width="80" height="30" as="geometry" />
        </mxCell>
        <mxCell id="tSgFQOaB9TfaK_oSHJal-8" value="学术杂志" style="rounded=0;whiteSpace=wrap;html=1;" vertex="1" parent="1">
          <mxGeometry x="540" y="70" width="80" height="30" as="geometry" />
        </mxCell>
        <mxCell id="tSgFQOaB9TfaK_oSHJal-9" value="检测机构" style="rounded=0;whiteSpace=wrap;html=1;" vertex="1" parent="1">
          <mxGeometry x="435" y="120" width="80" height="30" as="geometry" />
        </mxCell>
        <mxCell id="tSgFQOaB9TfaK_oSHJal-10" value="博客舆论" style="rounded=0;whiteSpace=wrap;html=1;" vertex="1" parent="1">
          <mxGeometry x="540" y="120" width="80" height="30" as="geometry" />
        </mxCell>
        <mxCell id="tSgFQOaB9TfaK_oSHJal-56" style="edgeStyle=orthogonalEdgeStyle;rounded=0;orthogonalLoop=1;jettySize=auto;html=1;entryX=0.5;entryY=0;entryDx=0;entryDy=0;" edge="1" parent="1" source="tSgFQOaB9TfaK_oSHJal-11" target="tSgFQOaB9TfaK_oSHJal-24">
          <mxGeometry relative="1" as="geometry" />
        </mxCell>
        <mxCell id="tSgFQOaB9TfaK_oSHJal-11" value="" style="rounded=1;whiteSpace=wrap;html=1;dashed=1;dashPattern=8 8;movable=1;resizable=1;rotatable=1;deletable=1;editable=1;locked=0;connectable=1;" vertex="1" parent="1">
          <mxGeometry x="310" y="220" width="330" height="140" as="geometry" />
        </mxCell>
        <mxCell id="tSgFQOaB9TfaK_oSHJal-12" value="&lt;div style=&quot;font-size: 20px;&quot;&gt;&lt;font style=&quot;font-size: 20px;&quot;&gt;采集与加工&lt;/font&gt;&lt;/div&gt;" style="text;html=1;strokeColor=none;fillColor=none;align=center;verticalAlign=middle;whiteSpace=wrap;rounded=0;fontStyle=1;movable=1;resizable=1;rotatable=1;deletable=1;editable=1;locked=0;connectable=1;" vertex="1" parent="1">
          <mxGeometry x="405" y="220" width="160" height="50" as="geometry" />
        </mxCell>
        <mxCell id="tSgFQOaB9TfaK_oSHJal-13" value="数据采集" style="rounded=0;whiteSpace=wrap;html=1;movable=1;resizable=1;rotatable=1;deletable=1;editable=1;locked=0;connectable=1;" vertex="1" parent="1">
          <mxGeometry x="330" y="290" width="80" height="30" as="geometry" />
        </mxCell>
        <mxCell id="tSgFQOaB9TfaK_oSHJal-14" value="数据预处理" style="rounded=0;whiteSpace=wrap;html=1;movable=1;resizable=1;rotatable=1;deletable=1;editable=1;locked=0;connectable=1;" vertex="1" parent="1">
          <mxGeometry x="435" y="290" width="80" height="30" as="geometry" />
        </mxCell>
        <mxCell id="tSgFQOaB9TfaK_oSHJal-40" style="edgeStyle=orthogonalEdgeStyle;rounded=0;orthogonalLoop=1;jettySize=auto;html=1;entryX=0;entryY=0.5;entryDx=0;entryDy=0;" edge="1" parent="1" source="tSgFQOaB9TfaK_oSHJal-62" target="tSgFQOaB9TfaK_oSHJal-36">
          <mxGeometry relative="1" as="geometry" />
        </mxCell>
        <mxCell id="tSgFQOaB9TfaK_oSHJal-23" value="" style="rounded=1;whiteSpace=wrap;html=1;strokeColor=default;dashed=1;dashPattern=12 12;" vertex="1" parent="1">
          <mxGeometry x="50" y="445" width="330" height="95" as="geometry" />
        </mxCell>
        <mxCell id="tSgFQOaB9TfaK_oSHJal-24" value="&lt;font style=&quot;font-size: 20px;&quot;&gt;存储&lt;/font&gt;" style="text;html=1;strokeColor=none;fillColor=none;align=center;verticalAlign=middle;whiteSpace=wrap;rounded=0;fontStyle=1" vertex="1" parent="1">
          <mxGeometry x="135" y="445" width="160" height="50" as="geometry" />
        </mxCell>
        <mxCell id="tSgFQOaB9TfaK_oSHJal-49" style="rounded=0;orthogonalLoop=1;jettySize=auto;html=1;entryX=0.25;entryY=0;entryDx=0;entryDy=0;exitX=0.5;exitY=1;exitDx=0;exitDy=0;" edge="1" parent="1" source="tSgFQOaB9TfaK_oSHJal-23" target="tSgFQOaB9TfaK_oSHJal-47">
          <mxGeometry relative="1" as="geometry" />
        </mxCell>
        <mxCell id="tSgFQOaB9TfaK_oSHJal-28" value="数据库（MySQL、PG）&lt;br&gt;数据仓库（hive）" style="rounded=0;whiteSpace=wrap;html=1;" vertex="1" parent="1">
          <mxGeometry x="137.5" y="495" width="155" height="30" as="geometry" />
        </mxCell>
        <mxCell id="tSgFQOaB9TfaK_oSHJal-48" style="rounded=0;orthogonalLoop=1;jettySize=auto;html=1;entryX=0.75;entryY=0;entryDx=0;entryDy=0;exitX=0.5;exitY=1;exitDx=0;exitDy=0;" edge="1" parent="1" source="tSgFQOaB9TfaK_oSHJal-36" target="tSgFQOaB9TfaK_oSHJal-47">
          <mxGeometry relative="1" as="geometry" />
        </mxCell>
        <mxCell id="tSgFQOaB9TfaK_oSHJal-36" value="" style="rounded=1;whiteSpace=wrap;html=1;strokeColor=default;dashed=1;dashPattern=12 12;" vertex="1" parent="1">
          <mxGeometry x="555" y="445" width="330" height="95" as="geometry" />
        </mxCell>
        <mxCell id="tSgFQOaB9TfaK_oSHJal-37" value="&lt;font style=&quot;font-size: 20px;&quot;&gt;模型&lt;/font&gt;" style="text;html=1;strokeColor=none;fillColor=none;align=center;verticalAlign=middle;whiteSpace=wrap;rounded=0;fontStyle=1" vertex="1" parent="1">
          <mxGeometry x="640" y="445" width="160" height="50" as="geometry" />
        </mxCell>
        <mxCell id="tSgFQOaB9TfaK_oSHJal-39" value="Bert双任务模型" style="rounded=0;whiteSpace=wrap;html=1;" vertex="1" parent="1">
          <mxGeometry x="642.5" y="495" width="155" height="30" as="geometry" />
        </mxCell>
        <mxCell id="tSgFQOaB9TfaK_oSHJal-47" value="" style="rounded=1;whiteSpace=wrap;html=1;strokeColor=default;dashed=1;dashPattern=12 12;" vertex="1" parent="1">
          <mxGeometry x="320" y="680" width="330" height="190" as="geometry" />
        </mxCell>
        <mxCell id="tSgFQOaB9TfaK_oSHJal-50" value="&lt;span style=&quot;font-size: 20px;&quot;&gt;预警系统&lt;/span&gt;" style="text;html=1;strokeColor=none;fillColor=none;align=center;verticalAlign=middle;whiteSpace=wrap;rounded=0;fontStyle=1" vertex="1" parent="1">
          <mxGeometry x="395" y="680" width="160" height="50" as="geometry" />
        </mxCell>
        <mxCell id="tSgFQOaB9TfaK_oSHJal-51" value="查询信息" style="rounded=0;whiteSpace=wrap;html=1;" vertex="1" parent="1">
          <mxGeometry x="417.5" y="730" width="115" height="30" as="geometry" />
        </mxCell>
        <mxCell id="tSgFQOaB9TfaK_oSHJal-52" value="风险预警" style="rounded=0;whiteSpace=wrap;html=1;" vertex="1" parent="1">
          <mxGeometry x="417.5" y="780" width="115" height="30" as="geometry" />
        </mxCell>
        <mxCell id="tSgFQOaB9TfaK_oSHJal-53" value="大屏检视" style="rounded=0;whiteSpace=wrap;html=1;" vertex="1" parent="1">
          <mxGeometry x="417.5" y="830" width="115" height="30" as="geometry" />
        </mxCell>
        <mxCell id="tSgFQOaB9TfaK_oSHJal-55" style="edgeStyle=orthogonalEdgeStyle;rounded=0;orthogonalLoop=1;jettySize=auto;html=1;entryX=0.438;entryY=-0.02;entryDx=0;entryDy=0;entryPerimeter=0;" edge="1" parent="1" source="tSgFQOaB9TfaK_oSHJal-1" target="tSgFQOaB9TfaK_oSHJal-12">
          <mxGeometry relative="1" as="geometry" />
        </mxCell>
        <mxCell id="tSgFQOaB9TfaK_oSHJal-57" style="edgeStyle=orthogonalEdgeStyle;rounded=0;orthogonalLoop=1;jettySize=auto;html=1;entryX=0.815;entryY=-0.032;entryDx=0;entryDy=0;entryPerimeter=0;exitX=1;exitY=0.5;exitDx=0;exitDy=0;" edge="1" parent="1" source="tSgFQOaB9TfaK_oSHJal-11" target="tSgFQOaB9TfaK_oSHJal-36">
          <mxGeometry relative="1" as="geometry">
            <mxPoint x="730" y="292.5" as="sourcePoint" />
          </mxGeometry>
        </mxCell>
        <mxCell id="tSgFQOaB9TfaK_oSHJal-58" value="实时采集" style="text;html=1;strokeColor=none;fillColor=none;align=center;verticalAlign=middle;whiteSpace=wrap;rounded=0;" vertex="1" parent="1">
          <mxGeometry x="690" y="290" width="60" height="30" as="geometry" />
        </mxCell>
        <mxCell id="tSgFQOaB9TfaK_oSHJal-61" value="专家标注" style="rounded=0;whiteSpace=wrap;html=1;movable=1;resizable=1;rotatable=1;deletable=1;editable=1;locked=0;connectable=1;" vertex="1" parent="1">
          <mxGeometry x="170" y="340" width="80" height="30" as="geometry" />
        </mxCell>
        <mxCell id="tSgFQOaB9TfaK_oSHJal-63" value="" style="edgeStyle=orthogonalEdgeStyle;rounded=0;orthogonalLoop=1;jettySize=auto;html=1;entryX=0;entryY=0.5;entryDx=0;entryDy=0;" edge="1" parent="1" source="tSgFQOaB9TfaK_oSHJal-23" target="tSgFQOaB9TfaK_oSHJal-62">
          <mxGeometry relative="1" as="geometry">
            <mxPoint x="380" y="493" as="sourcePoint" />
            <mxPoint x="555" y="493" as="targetPoint" />
          </mxGeometry>
        </mxCell>
        <mxCell id="tSgFQOaB9TfaK_oSHJal-62" value="深度学习" style="rounded=0;whiteSpace=wrap;html=1;" vertex="1" parent="1">
          <mxGeometry x="420" y="477.5" width="95" height="30" as="geometry" />
        </mxCell>
      </root>
    </mxGraphModel>
  </diagram>
</mxfile>
